<!-- Edited By Abdullah As-Sadeed -->

<svg
  class="svg-icon"
  style="
    width: 1em;
    height: 1em;
    vertical-align: middle;
    fill: #b4befe;
    overflow: hidden;
  "
  viewBox="0 0 1024 1024"
  version="1.1"
  xmlns="http://www.w3.org/2000/svg"
>
  <path
    d="M273.744 257.101h479.235c22.397 0 42.723 9.142 57.464 23.868 14.713 14.726 23.854 35.053 23.854 57.434v340.121c0 22.397-9.142 42.724-23.854 57.45-14.74 14.726-35.067 23.854-57.464 23.854H273.744c-22.383 0-42.708-9.128-57.434-23.854-14.728-14.726-23.87-35.053-23.87-57.45v-340.12c0-22.382 9.142-42.708 23.87-57.434 14.726-14.727 35.051-23.869 57.434-23.869z m470.423 701.094c12.115 0 23.104-4.939 31.059-12.88l0.015-0.031c7.957-7.957 12.88-18.929 12.88-31.059 0-12.115-4.924-23.087-12.88-31.044l-0.015-0.031a43.838 43.838 0 0 0-15.161-9.892v-18.556l14.456-12.67v-58.095h-58.936v57.21l12.37 13.69v18.54c-5.599 2.221-10.642 5.585-14.846 9.772l-0.029 0.031c-7.941 7.957-12.866 18.929-12.866 31.044 0 12.13 4.925 23.103 12.866 31.059l0.029 0.031c7.955 7.942 18.943 12.881 31.058 12.881z m22.143-21.813c-5.66 5.66-13.497 9.142-22.143 9.142-8.662 0-16.482-3.482-22.142-9.142a31.224 31.224 0 0 1-9.157-22.157c0-8.647 3.497-16.468 9.157-22.142a31.259 31.259 0 0 1 5.929-4.639v26.752h32.111v-26.947a31.607 31.607 0 0 1 6.246 4.835c5.658 5.674 9.157 13.495 9.157 22.142a31.237 31.237 0 0 1-9.158 22.156z m-136.473 21.813c12.115 0 23.104-4.939 31.045-12.88l0.029-0.031c7.956-7.957 12.88-18.929 12.88-31.059 0-12.115-4.924-23.087-12.88-31.044l-0.029-0.031a43.646 43.646 0 0 0-15.148-9.892v-18.556l14.471-12.67v-58.095h-58.952v57.21l12.356 13.69v18.54c-5.6 2.221-10.628 5.585-14.832 9.772l-0.015 0.031c-7.955 7.957-12.88 18.929-12.88 31.044 0 12.13 4.925 23.103 12.88 31.059l0.015 0.031c7.957 7.942 18.931 12.881 31.06 12.881z m22.144-21.813c-5.66 5.66-13.497 9.142-22.144 9.142-8.647 0-16.482-3.482-22.142-9.142a31.237 31.237 0 0 1-9.172-22.157c0-8.647 3.513-16.468 9.172-22.142a31.104 31.104 0 0 1 5.915-4.639v26.752h32.124v-26.947a31.607 31.607 0 0 1 6.246 4.835c5.643 5.674 9.157 13.495 9.157 22.142a31.294 31.294 0 0 1-9.156 22.156zM512.61 958.195c12.115 0 23.104-4.939 31.045-12.88l0.029-0.031c7.956-7.957 12.88-18.929 12.88-31.059 0-12.115-4.924-23.087-12.88-31.044l-0.029-0.031a43.795 43.795 0 0 0-15.148-9.892v-18.556l14.471-12.67v-58.095h-58.95v57.21l12.37 13.69v18.54a43.863 43.863 0 0 0-14.848 9.772l-0.029 0.031c-7.941 7.957-12.865 18.929-12.865 31.044 0 12.13 4.924 23.103 12.865 31.059l0.029 0.031c7.957 7.942 18.931 12.881 31.06 12.881z m22.144-21.813c-5.66 5.66-13.497 9.142-22.144 9.142a31.243 31.243 0 0 1-22.157-9.142 31.282 31.282 0 0 1-9.142-22.157c0-8.647 3.499-16.468 9.142-22.142a31.34 31.34 0 0 1 5.946-4.639v26.752h32.109v-26.947a31.549 31.549 0 0 1 6.246 4.835c5.658 5.674 9.157 13.495 9.157 22.142a31.236 31.236 0 0 1-9.157 22.156z m-137.929 21.813c12.13 0 23.104-4.939 31.059-12.88l0.015-0.031c7.957-7.957 12.88-18.929 12.88-31.059 0-12.115-4.924-23.087-12.88-31.044l-0.015-0.031a43.857 43.857 0 0 0-15.161-9.892v-18.556l14.471-12.67v-58.095h-58.952v57.21l12.37 13.69v18.54a43.949 43.949 0 0 0-14.831 9.772l-0.031 0.031c-7.955 7.957-12.88 18.929-12.88 31.044 0 12.13 4.925 23.103 12.88 31.059l0.031 0.031c7.941 7.942 18.929 12.881 31.044 12.881z m22.143-21.813c-5.66 5.66-13.497 9.142-22.143 9.142s-16.482-3.482-22.142-9.142a31.224 31.224 0 0 1-9.157-22.157c0-8.647 3.497-16.468 9.157-22.142a31.259 31.259 0 0 1 5.929-4.639v26.752h32.111v-26.947a31.607 31.607 0 0 1 6.246 4.835c5.658 5.674 9.157 13.495 9.157 22.142a31.233 31.233 0 0 1-9.158 22.156z m-139.37 21.813c12.115 0 23.104-4.939 31.045-12.88l0.029-0.031c7.957-7.957 12.88-18.929 12.88-31.059 0-12.115-4.924-23.087-12.88-31.044l-0.029-0.031a43.646 43.646 0 0 0-15.148-9.892v-18.556l14.471-12.67v-58.095h-58.95v57.21l12.37 13.69v18.54c-5.615 2.221-10.644 5.585-14.848 9.772l-0.014 0.031c-7.957 7.957-12.88 18.929-12.88 31.044 0 12.13 4.923 23.103 12.88 31.059l0.014 0.031c7.957 7.942 18.931 12.881 31.06 12.881z m22.143-21.813c-5.66 5.66-13.497 9.142-22.143 9.142s-16.482-3.482-22.157-9.142a31.282 31.282 0 0 1-9.142-22.157c0-8.647 3.499-16.468 9.142-22.142a31.788 31.788 0 0 1 5.946-4.639v26.752h32.109v-26.947a31.149 31.149 0 0 1 6.246 4.835c5.658 5.674 9.157 13.495 9.157 22.142a31.233 31.233 0 0 1-9.158 22.156zM744.167 61.918c12.115 0 23.104 4.924 31.059 12.88l0.015 0.029c7.957 7.941 12.88 18.931 12.88 31.045 0 12.115-4.924 23.103-12.88 31.059l-0.015 0.029a43.812 43.812 0 0 1-15.161 9.893v18.554l14.456 12.656v58.109h-58.936V178.95l12.37-13.69v-18.525a44.375 44.375 0 0 1-14.846-9.774l-0.029-0.029c-7.941-7.957-12.866-18.944-12.866-31.059 0-12.115 4.925-23.104 12.866-31.045l0.029-0.029c7.955-7.957 18.943-12.881 31.058-12.881z m22.143 21.811a31.231 31.231 0 0 0-22.143-9.157 31.2 31.2 0 0 0-22.142 9.157 31.223 31.223 0 0 0-9.157 22.143 31.193 31.193 0 0 0 9.157 22.142 31.904 31.904 0 0 0 5.929 4.653v-26.75h32.111v26.932a31.122 31.122 0 0 0 6.246-4.834 31.2 31.2 0 0 0 9.157-22.142 31.237 31.237 0 0 0-9.158-22.144zM629.837 61.918c12.115 0 23.104 4.924 31.045 12.88l0.029 0.029c7.956 7.941 12.88 18.931 12.88 31.045 0 12.115-4.924 23.103-12.88 31.059l-0.029 0.029a43.62 43.62 0 0 1-15.148 9.893v18.554l14.471 12.656v58.109h-58.952V178.95l12.356-13.69v-18.525a44.306 44.306 0 0 1-14.832-9.774l-0.015-0.029c-7.955-7.957-12.88-18.944-12.88-31.059 0-12.115 4.925-23.104 12.88-31.045l0.015-0.029c7.957-7.957 18.931-12.881 31.06-12.881z m22.144 21.811a31.232 31.232 0 0 0-22.144-9.157 31.227 31.227 0 0 0-22.142 9.157c-5.66 5.66-9.172 13.497-9.172 22.143 0 8.662 3.513 16.482 9.172 22.142a31.744 31.744 0 0 0 5.915 4.653v-26.75h32.124v26.932a31.122 31.122 0 0 0 6.246-4.834c5.643-5.66 9.157-13.48 9.157-22.142 0.001-8.647-3.514-16.484-9.156-22.144zM512.61 61.918c12.115 0 23.104 4.924 31.045 12.88l0.029 0.029c7.956 7.941 12.88 18.931 12.88 31.045 0 12.115-4.924 23.103-12.88 31.059l-0.029 0.029a43.769 43.769 0 0 1-15.148 9.893v18.554l14.471 12.656v58.109h-58.95V178.95l12.37-13.69v-18.525a44.076 44.076 0 0 1-14.848-9.774l-0.029-0.029c-7.941-7.957-12.865-18.944-12.865-31.059 0-12.115 4.924-23.104 12.865-31.045l0.029-0.029c7.957-7.957 18.931-12.881 31.06-12.881z m22.144 21.811a31.232 31.232 0 0 0-22.144-9.157c-8.661 0-16.482 3.499-22.157 9.157a31.281 31.281 0 0 0-9.142 22.143 31.25 31.25 0 0 0 9.142 22.142 31.986 31.986 0 0 0 5.946 4.653v-26.75h32.109v26.932a31.066 31.066 0 0 0 6.246-4.834 31.2 31.2 0 0 0 9.157-22.142 31.236 31.236 0 0 0-9.157-22.144zM396.825 61.918c12.13 0 23.104 4.924 31.059 12.88l0.015 0.029c7.957 7.941 12.88 18.931 12.88 31.045 0 12.115-4.924 23.103-12.88 31.059l-0.015 0.029a43.83 43.83 0 0 1-15.161 9.893v18.554l14.471 12.656v58.109h-58.952V178.95l12.37-13.69v-18.525a44.163 44.163 0 0 1-14.831-9.774l-0.031-0.029c-7.955-7.957-12.88-18.944-12.88-31.059 0-12.115 4.925-23.104 12.88-31.045l0.031-0.029c7.941-7.957 18.929-12.881 31.044-12.881z m22.143 21.811c-5.66-5.658-13.497-9.157-22.143-9.157s-16.482 3.499-22.142 9.157a31.223 31.223 0 0 0-9.157 22.143 31.193 31.193 0 0 0 9.157 22.142 31.904 31.904 0 0 0 5.929 4.653v-26.75h32.111v26.932a31.122 31.122 0 0 0 6.246-4.834 31.2 31.2 0 0 0 9.157-22.142 31.233 31.233 0 0 0-9.158-22.144z m-139.37-21.811c12.115 0 23.104 4.924 31.045 12.88l0.029 0.029c7.957 7.941 12.88 18.931 12.88 31.045 0 12.115-4.924 23.103-12.88 31.059l-0.029 0.029a43.62 43.62 0 0 1-15.148 9.893v18.554l14.471 12.656v58.109h-58.95V178.95l12.37-13.69v-18.525a44.224 44.224 0 0 1-14.848-9.774l-0.014-0.029c-7.957-7.957-12.88-18.944-12.88-31.059 0-12.115 4.923-23.104 12.88-31.045l0.014-0.029c7.957-7.957 18.931-12.881 31.06-12.881z m22.143 21.811c-5.66-5.658-13.497-9.157-22.143-9.157s-16.482 3.499-22.157 9.157a31.281 31.281 0 0 0-9.142 22.143 31.25 31.25 0 0 0 9.142 22.142 32.453 32.453 0 0 0 5.946 4.653v-26.75h32.109v26.932a30.678 30.678 0 0 0 6.246-4.834 31.2 31.2 0 0 0 9.157-22.142 31.233 31.233 0 0 0-9.158-22.144z m-24.664 264.913v312.621h467.451V348.642H277.077z m475.902-40.936H273.744c-8.422 0-16.093 3.453-21.662 9.037-5.584 5.569-9.037 13.24-9.037 21.661v340.121c0 8.422 3.453 16.093 9.037 21.662 5.569 5.585 13.24 9.053 21.662 9.053h479.235c8.421 0 16.091-3.468 21.676-9.053 5.569-5.569 9.037-13.24 9.037-21.662V338.404c0-8.421-3.468-16.091-9.037-21.661-5.584-5.584-13.255-9.037-21.676-9.037z"
  />
</svg>
